#N canvas 494 97 439 332 10;
#X obj 118 225 dac~;
#N canvas 769 256 450 300 genera_sonido 0;
#X obj 124 131 readsf~;
#X msg 123 84 open Genesis_Clean_Guitar_Amp.aif \, 1;
#X obj 121 189 outlet~;
#X obj 122 35 inlet;
#X connect 0 0 2 0;
#X connect 0 1 2 0;
#X connect 1 0 0 0;
#X connect 3 0 1 0;
#X restore 117 183 pd genera_sonido;
#X obj 117 123 bng 15 250 50 0 empty empty empty 17 7 0 10 -262144
-1 -1;
#X connect 1 0 0 0;
#X connect 1 0 0 1;
#X connect 2 0 1 0;
