#N canvas 239 0 734 669 24;
#X obj 323 268 dac~;
#X obj 332 -51 bng 15 250 50 0 empty empty empty 17 7 0 10 -262144
-1 -1;
#X floatatom 27 123 5 0 0 0 - - -;
#X floatatom 26 73 5 0 100 0 - - -;
#X obj 52 -12 tgl 20 0 empty empty 1 5 -8 0 12 -262144 -1 -1 0 1;
#X obj 332 -7 funciones/genera_sonido;
#X obj 126 123 efectos/midelay;
#X obj 129 46 funciones/if;
#X obj 456 115 efectos/frecuency;
#X obj 410 47 funciones/if;
#X obj 248 -22 tgl 20 0 empty empty 2 5 -8 0 12 -262144 -1 -1 0 1;
#X floatatom 640 18 5 0 0 0 - - -;
#X connect 1 0 5 0;
#X connect 2 0 6 1;
#X connect 3 0 6 2;
#X connect 4 0 7 0;
#X connect 5 0 7 1;
#X connect 5 0 9 1;
#X connect 6 0 0 0;
#X connect 6 0 0 1;
#X connect 7 0 0 1;
#X connect 7 0 0 0;
#X connect 7 1 6 0;
#X connect 9 1 8 0;
#X connect 10 0 9 0;
#X connect 11 0 8 1;
