#N canvas -8 -8 1366 685 24;
#X obj 180 -40 bng 15 250 50 0 empty empty empty 17 7 0 10 -262144
-1 -1;
#X obj 213 17 funciones/genera_sonido;
#X obj 293 442 output~;
#X floatatom 468 221 5 0 0 0 - - -;
#X obj 338 301 *~;
#X connect 0 0 1 0;
#X connect 1 0 4 0;
#X connect 3 0 4 1;
#X connect 4 0 2 0;
#X connect 4 0 2 1;
