#N canvas 33 244 450 300 24;
#X obj 102 19 inlet;
#X obj 255 15 inlet~;
#X obj 108 70 == 0;
#X obj 206 66 == 1;
#X obj 121 203 outlet~;
#X obj 248 182 outlet~;
#X obj 154 116 *~;
#X obj 235 116 *~;
#X connect 0 0 2 0;
#X connect 0 0 3 0;
#X connect 1 0 7 1;
#X connect 1 0 6 1;
#X connect 2 0 6 0;
#X connect 3 0 7 0;
#X connect 6 0 4 0;
#X connect 7 0 5 0;
