#N canvas 0 0 963 669 24;
#X text 450 132 <-- delay time;
#X obj 370 271 +~;
#X obj 400 228 *~ 0.7;
#X obj 399 181 delread~ G02-del 160;
#X obj 473 336 delwrite~ G02-del 2000;
#X text 48 119;
#X text 375 246;
#X text 82 403;
#X text 126 380;
#X text 525 186;
#X text 418 321;
#X obj 353 447 outlet~;
#X obj 179 96 inlet~;
#X obj 384 58 inlet;
#X obj 819 60 inlet;
#X obj 651 202 / 100;
#X connect 1 0 4 0;
#X connect 1 0 11 0;
#X connect 2 0 1 1;
#X connect 3 0 2 0;
#X connect 12 0 1 0;
#X connect 13 0 3 0;
#X connect 14 0 15 0;
#X connect 15 0 2 1;
